<svg xmlns="http://www.w3.org/2000/svg" viewBox="0 0 32 32" fill="none">
  <defs>
    <linearGradient id="grad" x1="0%" y1="0%" x2="100%" y2="100%">
      <stop offset="0%" style="stop-color:#6366f1;stop-opacity:1" />
      <stop offset="100%" style="stop-color:#8b5cf6;stop-opacity:1" />
    </linearGradient>
  </defs>
  <rect width="32" height="32" rx="8" fill="url(#grad)"/>
  <path d="M16 6C10.477 6 6 10.477 6 16s4.477 10 10 10 10-4.477 10-10S21.523 6 16 6z" fill="none" stroke="white" stroke-width="1.5"/>
  <path d="M12 16c0-2.21 1.79-4 4-4s4 1.79 4 4" stroke="white" stroke-width="1.5" stroke-linecap="round"/>
  <path d="M10 14c0-3.314 2.686-6 6-6s6 2.686 6 6" stroke="white" stroke-width="1.5" stroke-linecap="round"/>
  <circle cx="16" cy="18" r="2" fill="white"/>
  <path d="M16 20v4" stroke="white" stroke-width="1.5" stroke-linecap="round"/>
  <path d="M13 22l3 2 3-2" stroke="white" stroke-width="1.5" stroke-linecap="round" stroke-linejoin="round"/>
</svg>
